<svg width="800" height="500" viewBox="0 0 800 500" fill="none" xmlns="http://www.w3.org/2000/svg">
  <rect width="800" height="500" rx="28" fill="#FFF4EE"/>
  <circle cx="150" cy="125" r="62" fill="#FFD2C5"/>
  <circle cx="650" cy="95" r="42" fill="#FFE6DD"/>
  <rect x="95" y="180" width="610" height="220" rx="24" fill="white" stroke="#F4B2A1" stroke-width="8"/>
  <path d="M180 340L300 270L400 295L520 210L620 235" stroke="#FA8072" stroke-width="18" stroke-linecap="round" stroke-linejoin="round"/>
  <circle cx="180" cy="340" r="14" fill="#FA8072"/>
  <circle cx="300" cy="270" r="14" fill="#FA8072"/>
  <circle cx="400" cy="295" r="14" fill="#FA8072"/>
  <circle cx="520" cy="210" r="14" fill="#FA8072"/>
  <circle cx="620" cy="235" r="14" fill="#FA8072"/>
  <rect x="170" y="130" width="170" height="32" rx="16" fill="#FA8072" fill-opacity="0.14"/>
  <text x="190" y="152" font-size="22" font-weight="700" fill="#D76857" font-family="Arial, sans-serif">Growth Marketing</text>
  <rect x="155" y="375" width="120" height="16" rx="8" fill="#FFE2D8"/>
  <rect x="300" y="375" width="160" height="16" rx="8" fill="#FFE2D8"/>
  <rect x="485" y="375" width="96" height="16" rx="8" fill="#FFE2D8"/>
</svg>
